<svg xmlns="http://www.w3.org/2000/svg" viewBox="0 0 400 400" width="400" height="400">
  <path d="M 200 200 Q 220 200 220 220" fill="none" stroke="#FF0000" stroke-width="2"/>
  <path d="M 220 220 Q 220 240 200 240" fill="none" stroke="#FF3300" stroke-width="2"/>
  <path d="M 200 240 Q 180 240 180 220" fill="none" stroke="#FF6600" stroke-width="2"/>
  <path d="M 180 220 Q 180 180 220 180" fill="none" stroke="#FF9900" stroke-width="2"/>
  <path d="M 220 180 Q 260 180 260 220" fill="none" stroke="#FFCC00" stroke-width="2"/>
  <path d="M 260 220 Q 260 260 220 260" fill="none" stroke="#FFFF00" stroke-width="2"/>
  <path d="M 220 260 Q 160 260 160 220" fill="none" stroke="#CCFF00" stroke-width="2"/>
  <path d="M 160 220 Q 160 160 220 160" fill="none" stroke="#99FF00" stroke-width="2"/>
  <path d="M 220 160 Q 280 160 280 220" fill="none" stroke="#66FF00" stroke-width="2"/>
  <path d="M 280 220 Q 280 280 220 280" fill="none" stroke="#33FF00" stroke-width="2"/>
  <path d="M 220 280 Q 140 280 140 220" fill="none" stroke="#00FF00" stroke-width="2"/>
  <path d="M 140 220 Q 140 140 220 140" fill="none" stroke="#00FF33" stroke-width="2"/>
  <path d="M 220 140 Q 300 140 300 220" fill="none" stroke="#00FF66" stroke-width="2"/>
  <path d="M 300 220 Q 300 300 220 300" fill="none" stroke="#00FF99" stroke-width="2"/>
  <path d="M 220 300 Q 120 300 120 220" fill="none" stroke="#00FFCC" stroke-width="2"/>
  <path d="M 120 220 Q 120 120 220 120" fill="none" stroke="#00FFFF" stroke-width="2"/>
</svg>
